<?xml version="1.0" encoding="UTF-8"?><svg id="_레이어_1" xmlns="http://www.w3.org/2000/svg" viewBox="0 0 16.42 15.58"><defs><style>.cls-1{fill:none;stroke:#9f9f9f;stroke-linecap:round;stroke-linejoin:round;stroke-width:1.5px;}</style></defs><path class="cls-1" d="m8.21,10.02c1.24,0,2.24-1,2.24-2.24s-1-2.24-2.24-2.24-2.24,1-2.24,2.24,1,2.24,2.24,2.24Z"/><path class="cls-1" d="m.75,8.44v-1.31c0-.78.63-1.42,1.42-1.42,1.35,0,1.9-.95,1.22-2.12-.39-.67-.16-1.54.52-1.93l1.29-.74c.59-.35,1.35-.14,1.7.45l.08.14c.67,1.17,1.77,1.17,2.45,0l.08-.14c.35-.59,1.11-.8,1.7-.45l1.29.74c.68.39.91,1.26.52,1.93-.68,1.17-.13,2.12,1.22,2.12.78,0,1.42.63,1.42,1.42v1.31c0,.78-.63,1.42-1.42,1.42-1.35,0-1.9.95-1.22,2.12.39.68.16,1.54-.52,1.93l-1.29.74c-.59.35-1.35.14-1.7-.45l-.08-.14c-.67-1.17-1.77-1.17-2.45,0l-.08.14c-.35.59-1.11.8-1.7.45l-1.29-.74c-.68-.39-.91-1.26-.52-1.93.68-1.17.13-2.12-1.22-2.12-.78,0-1.42-.64-1.42-1.42Z"/></svg>