<?xml version="1.0" encoding="UTF-8"?><svg id="_레이어_1" xmlns="http://www.w3.org/2000/svg" viewBox="0 0 16 16"><defs><style>.cls-1{fill:#9f9f9f;}</style></defs><path class="cls-1" d="m5.78,3.21c-1.69,1.9-2.85,4.63-2.96,4.88l-1.87-.8c-.54-.23-.67-.94-.26-1.35l2.5-2.5c.39-.39.95-.56,1.5-.46l1.09.22h0Zm1.24,8.42c.25.25.61.32.93.17.96-.45,3.03-1.5,4.36-2.84,3.81-3.81,3.84-6.91,3.62-8.23-.03-.16-.11-.31-.23-.43-.12-.12-.27-.2-.43-.22-1.33-.22-4.43-.19-8.24,3.61-1.34,1.33-2.38,3.4-2.84,4.36-.15.32-.07.69.17.93l2.65,2.65h0Zm5.78-1.41c-1.9,1.69-4.63,2.85-4.89,2.96l.8,1.87c.23.54.94.67,1.35.26l2.5-2.5c.39-.39.56-.95.46-1.5l-.22-1.09Zm-7.22,2.16c.08.4.06.82-.06,1.21-.12.39-.33.75-.62,1.04-.64.64-2.62,1.11-3.91,1.36-.57.11-1.08-.4-.97-.97.25-1.29.71-3.27,1.36-3.9.29-.29.65-.5,1.04-.62s.81-.14,1.21-.06c.97.18,1.77.98,1.95,1.95h0Zm3.37-6.97c0-.91.75-1.66,1.66-1.66s1.66.75,1.66,1.66-.75,1.66-1.66,1.66-1.66-.75-1.66-1.66Z"/></svg>