<?xml version="1.0" encoding="UTF-8"?><svg id="_레이어_1" xmlns="http://www.w3.org/2000/svg" viewBox="0 0 15.5 15.55"><defs><style>.cls-1{fill:#9f9f9f;}</style></defs><path class="cls-1" d="m7.75,15.55c-.5,0-.97-.25-1.3-.69l-1.08-1.44s-.11-.06-.14-.07h-.36c-3.01,0-4.87-.81-4.87-4.87v-3.61C0,1.68,1.68,0,4.87,0h5.77c3.19,0,4.87,1.68,4.87,4.87v3.61c0,3.19-1.68,4.87-4.87,4.87h-.36c-.06,0-.11.03-.14.07l-1.08,1.44c-.33.44-.8.69-1.3.69ZM4.87,1.08c-2.58,0-3.79,1.2-3.79,3.79v3.61c0,3.26,1.12,3.79,3.79,3.79h.36c.37,0,.79.21,1.01.5l1.08,1.44c.25.33.61.33.87,0l1.08-1.44c.24-.32.61-.5,1.01-.5h.36c2.58,0,3.79-1.2,3.79-3.79v-3.61c0-2.58-1.2-3.79-3.79-3.79h-5.77Z"/><path class="cls-1" d="m7.75,7.75c-.4,0-.72-.32-.72-.72s.32-.72.72-.72.72.32.72.72-.32.72-.72.72Z"/><path class="cls-1" d="m10.64,7.75c-.4,0-.72-.32-.72-.72s.32-.72.72-.72.72.32.72.72-.32.72-.72.72Z"/><path class="cls-1" d="m4.87,7.75c-.4,0-.72-.32-.72-.72s.32-.72.72-.72.72.32.72.72-.32.72-.72.72Z"/></svg>